<svg xmlns="http://www.w3.org/2000/svg" fill="none" stroke="currentColor" stroke-linecap="round" stroke-linejoin="round" stroke-width="2.5" aria-hidden="true">
  <symbol id="icon-home" viewBox="0 0 24 24">
    <path d="m3 9 9-7 9 7v11a2 2 0 0 1-2 2H5a2 2 0 0 1-2-2Z"/>
    <path d="M9 22V12h6v10"/>
  </symbol>
  <symbol id="icon-home-active" viewBox="0 0 24 24">
    <path fill="currentColor" opacity=".24" d="m3 9 9-7 9 7v11a2 2 0 0 1-2 2H5a2 2 0 0 1-2-2Z"/>
    <path d="m3 9 9-7 9 7v11a2 2 0 0 1-2 2H5a2 2 0 0 1-2-2Z"/>
    <path d="M9 22V12h6v10"/>
  </symbol>
  <symbol id="icon-search" viewBox="0 0 24 24">
    <circle cx="11" cy="11" r="8"/>
    <path d="m21 21-4.3-4.3"/>
  </symbol>
  <symbol id="icon-search-active" viewBox="0 0 24 24">
    <circle cx="11" cy="11" r="8" fill="currentColor" opacity=".24"/>
    <circle cx="11" cy="11" r="8"/>
    <path d="m21 21-4.3-4.3"/>
  </symbol>
  <symbol id="icon-archive" viewBox="0 0 24 24">
    <circle cx="12" cy="12" r="10"/>
    <path d="M12 6v6l4.5 2.5"/>
  </symbol>
  <symbol id="icon-archive-active" viewBox="0 0 24 24">
    <circle cx="12" cy="12" r="10" fill="currentColor" opacity=".24"/>
    <circle cx="12" cy="12" r="10"/>
    <path d="M12 6v6l4.5 2.5"/>
  </symbol>
  <symbol id="icon-tags" viewBox="0 0 24 24">
    <path d="M4 9h16M4 15h16M10 3 8 21M16 3l-2 18"/>
  </symbol>
  <symbol id="icon-tags-active" viewBox="0 0 24 24">
    <path d="M4 9h16M4 15h16M10 3 8 21M16 3l-2 18" stroke-width="3.2"/>
  </symbol>
  <symbol id="icon-about" viewBox="0 0 24 24">
    <circle cx="12" cy="12" r="10"/>
    <path d="M12 16v-4M12 8h.01"/>
  </symbol>
  <symbol id="icon-about-active" viewBox="0 0 24 24">
    <circle cx="12" cy="12" r="10" fill="currentColor" opacity=".24"/>
    <circle cx="12" cy="12" r="10"/>
    <path d="M12 16v-4M12 8h.01"/>
  </symbol>
</svg>
