<svg xmlns="http://www.w3.org/2000/svg" fill="none" stroke="currentColor" stroke-linecap="round" stroke-linejoin="round" stroke-width="2.5" aria-hidden="true">
  <symbol id="icon-home" viewBox="0 0 24 24">
    <path d="m3 9 9-7 9 7v11a2 2 0 0 1-2 2H5a2 2 0 0 1-2-2Z"/>
    <path d="M9 22V12h6v10"/>
  </symbol>
  <symbol id="icon-home-active" viewBox="0 0 24 24">
    <path fill="currentColor" opacity=".24" d="m3 9 9-7 9 7v11a2 2 0 0 1-2 2H5a2 2 0 0 1-2-2Z"/>
    <path d="m3 9 9-7 9 7v11a2 2 0 0 1-2 2H5a2 2 0 0 1-2-2Z"/>
    <path d="M9 22V12h6v10"/>
  </symbol>
  <symbol id="icon-search" viewBox="0 0 24 24">
    <circle cx="11" cy="11" r="8"/>
    <path d="m21 21-4.3-4.3"/>
  </symbol>
  <symbol id="icon-search-active" viewBox="0 0 24 24">
    <circle cx="11" cy="11" r="8" fill="currentColor" opacity=".24"/>
    <circle cx="11" cy="11" r="8"/>
    <path d="m21 21-4.3-4.3"/>
  </symbol>
  <symbol id="icon-archive" viewBox="0 0 24 24">
    <circle cx="12" cy="12" r="10"/>
    <path d="M12 6v6l4.5 2.5"/>
  </symbol>
  <symbol id="icon-archive-active" viewBox="0 0 24 24">
    <circle cx="12" cy="12" r="10" fill="currentColor" opacity=".24"/>
    <circle cx="12" cy="12" r="10"/>
    <path d="M12 6v6l4.5 2.5"/>
  </symbol>
  <symbol id="icon-tags" viewBox="0 0 24 24">
    <path d="M4 9h16M4 15h16M10 3 8 21M16 3l-2 18"/>
  </symbol>
  <symbol id="icon-tags-active" viewBox="0 0 24 24">
    <path d="M4 9h16M4 15h16M10 3 8 21M16 3l-2 18" stroke-width="3.2"/>
  </symbol>
  <symbol id="icon-about" viewBox="0 0 24 24">
    <circle cx="12" cy="12" r="10"/>
    <path d="M12 16v-4M12 8h.01"/>
  </symbol>
  <symbol id="icon-about-active" viewBox="0 0 24 24">
    <circle cx="12" cy="12" r="10" fill="currentColor" opacity=".24"/>
    <circle cx="12" cy="12" r="10"/>
    <path d="M12 16v-4M12 8h.01"/>
  </symbol>
  <symbol id="icon-comment" viewBox="0 0 24 24">
    <path d="M21 11.5a8.4 8.4 0 0 1-9 8.4 8.8 8.8 0 0 1-3.8-.9L3 21l1.8-5A8.4 8.4 0 1 1 21 11.5Z"/>
  </symbol>
  <symbol id="icon-repost" viewBox="0 0 24 24">
    <path d="m17 2 4 4-4 4"/>
    <path d="M3 11V9a3 3 0 0 1 3-3h15"/>
    <path d="m7 22-4-4 4-4"/>
    <path d="M21 13v2a3 3 0 0 1-3 3H3"/>
  </symbol>
  <symbol id="icon-like" viewBox="0 0 24 24">
    <path d="M20.8 4.6a5.5 5.5 0 0 0-7.8 0L12 5.7l-1.1-1.1a5.5 5.5 0 0 0-7.8 7.8L12 21l8.8-8.6a5.5 5.5 0 0 0 0-7.8Z"/>
  </symbol>
  <symbol id="icon-views" viewBox="0 0 24 24">
    <path d="M3 3v18h18"/>
    <path d="M7 16v-5"/>
    <path d="M12 16V7"/>
    <path d="M17 16v-9"/>
  </symbol>
</svg>
